kinematics
version=1
nRows=29
nColumns=34
inDegrees=yes
endheader
time	pelvis_tilt	pelvis_list	pelvis_rotation	pelvis_tx	pelvis_ty	pelvis_tz	hip_flexion_r	hip_adduction_r	hip_rotation_r	knee_angle_r	ankle_angle_r	subtalar_angle_r	mtp_angle_r	hip_flexion_l	hip_adduction_l	hip_rotation_l	knee_angle_l	ankle_angle_l	subtalar_angle_l	mtp_angle_l	lumbar_extension	lumbar_bending	lumbar_rotation	arm_flex_r	arm_add_r	arm_rot_r	elbow_flex_r	pro_sup_r	arm_flex_l	arm_add_l	arm_rot_l	elbow_flex_l	pro_sup_l
0.000000	-13.787051	2.962168	-2.756122	-0.116941	0.873630	0.063021	-5.946048	1.552413	2.735441	12.252945	-6.137118	0.003847	0.000000	38.518801	4.144521	0.855653	32.078708	-0.107063	-13.738489	0.000000	2.948691	-3.504877	6.788613	12.525959	-14.010021	12.431239	102.047233	99.737559	-28.773420	-13.090091	-0.119943	83.572785	80.886673
0.008333	-13.167011	2.862872	-2.917718	-0.116890	0.876156	0.064360	-6.460225	1.302563	1.858194	15.154769	-7.808189	0.002111	0.000000	36.884704	4.323054	1.618233	27.638421	-0.660053	-11.361286	0.000000	2.197325	-3.727959	7.202429	12.835144	-14.248852	13.710253	101.159841	99.814608	-28.819067	-12.969551	-1.091190	83.175220	83.055649
0.016667	-12.582130	2.727001	-3.229491	-0.116626	0.877831	0.065745	-6.317377	1.075001	1.371484	19.226936	-8.991844	-0.415652	0.000000	35.432023	4.324621	2.312099	24.074059	-1.044942	-8.526157	0.000000	1.472678	-3.844302	7.713222	12.835755	-14.443088	14.726352	100.164105	99.906995	-28.657676	-12.603295	-2.041171	83.028697	84.863166
0.025000	-12.085336	2.734811	-3.504095	-0.116255	0.878215	0.067210	-5.664185	0.652630	0.887726	24.076987	-9.727548	-1.507734	0.000000	34.144496	4.366835	2.828492	21.284114	-1.309540	-5.805436	0.000000	0.906618	-4.177879	8.044312	12.677579	-14.428794	15.512215	98.946194	99.925235	-28.418419	-12.465038	-2.965855	83.091816	86.699064
0.033333	-11.575306	2.905456	-3.772793	-0.115916	0.877657	0.068631	-4.717678	0.010569	0.497966	29.508353	-10.137013	-2.971461	0.000000	32.939473	4.543598	3.224309	19.241213	-1.589761	-3.589999	0.000000	0.329486	-4.721697	8.283989	12.331435	-14.302781	16.276750	97.593001	99.877847	-28.067430	-12.537536	-3.872371	83.399297	88.505486
0.041667	-11.113276	3.204495	-4.012910	-0.115676	0.876139	0.070007	-3.562546	-0.794705	0.223856	35.212814	-10.400544	-4.678160	0.000000	31.874554	4.838408	3.516377	17.827350	-1.877764	-1.942021	0.000000	-0.142501	-5.392159	8.464183	11.709207	-14.004164	16.899344	96.016879	99.776327	-27.635145	-12.757748	-4.764891	83.879025	90.253111
0.050000	-10.655040	3.569144	-4.222710	-0.115660	0.873586	0.071314	-2.339684	-1.687297	0.046264	40.976968	-10.798050	-6.552734	0.000000	30.872122	5.197753	3.679849	16.910290	-2.148204	-0.762130	0.000000	-0.582505	-6.137273	8.559613	10.902213	-13.554365	17.352617	94.239914	99.634214	-27.203119	-13.105617	-5.627211	84.696887	92.025753
0.058333	-10.246556	3.962455	-4.392104	-0.115739	0.869917	0.072522	-1.073734	-2.625641	-0.078163	46.647481	-11.414773	-8.471657	0.000000	29.916537	5.614276	3.800584	16.333321	-2.510252	-0.163034	0.000000	-0.888234	-6.895158	8.647517	9.777291	-13.047461	17.575383	92.355253	99.470353	-26.792178	-13.607863	-6.379117	85.799412	93.445929
0.066667	-9.821749	4.290342	-4.552352	-0.115957	0.865477	0.073660	0.163767	-3.509363	-0.157661	52.207559	-12.304342	-10.459644	0.000000	28.917092	5.974403	3.798317	16.059957	-2.691254	0.184314	0.000000	-1.175334	-7.541781	8.696634	8.501515	-12.505412	17.595395	90.318511	99.306965	-26.379600	-14.159603	-7.030784	87.140160	94.619497
0.075000	-9.440931	4.550603	-4.680198	-0.116225	0.860353	0.074634	1.438366	-4.342062	-0.234229	57.618606	-13.386992	-12.454610	0.000000	27.894522	6.307940	3.785321	15.999688	-2.695143	0.137611	0.000000	-1.379758	-8.066031	8.673165	7.059643	-11.933466	17.347053	88.228278	99.158019	-25.935448	-14.805191	-7.485220	88.673410	95.349334
0.083333	-9.107005	4.720273	-4.754608	-0.116485	0.854888	0.075350	2.748676	-5.100761	-0.340876	62.812258	-14.581328	-14.512705	0.000000	26.862717	6.606104	3.762396	16.197260	-2.294182	-0.077697	0.000000	-1.493281	-8.446081	8.529462	5.507556	-11.393665	16.893000	86.009212	99.032498	-25.437572	-15.501967	-7.771042	90.368613	95.788832
0.091667	-8.859390	4.840648	-4.742449	-0.116677	0.849283	0.075749	4.138103	-5.816953	-0.476037	67.764036	-15.794566	-16.580786	0.000000	25.823663	6.948193	3.844335	16.592790	-1.433508	-0.457528	0.000000	-1.479777	-8.723217	8.143139	3.927388	-10.812890	16.297060	83.654368	98.882713	-24.945137	-16.218561	-8.027857	92.235421	96.448216
0.100000	-8.656543	4.945136	-4.669805	-0.116873	0.844159	0.075852	5.586156	-6.523034	-0.609401	72.399988	-16.904364	-18.405863	0.000000	24.698489	7.367840	4.010109	17.133068	-0.243261	-1.071879	0.000000	-1.428304	-8.931575	7.566435	2.334674	-10.258622	15.569492	81.316151	98.738729	-24.265042	-16.959175	-8.152993	94.039708	97.076282
0.108333	-8.489843	5.021808	-4.513222	-0.117203	0.839779	0.075693	7.089058	-7.156202	-0.711227	76.669507	-17.938508	-20.007007	0.000000	23.489556	7.852125	4.283162	17.819448	1.218763	-1.820391	0.000000	-1.376061	-9.087748	6.722528	0.822886	-9.713099	14.778547	78.909451	98.607731	-23.434574	-17.695446	-8.214275	95.871844	97.600947
0.116667	-8.364744	5.095047	-4.284511	-0.117730	0.836097	0.075348	8.659753	-7.718329	-0.747940	80.549069	-18.902472	-21.400192	0.000000	22.216462	8.399205	4.615436	18.598414	2.872473	-2.631254	0.000000	-1.307738	-9.219495	5.857219	-0.829159	-9.084005	13.482412	76.692202	98.405714	-22.118593	-18.491227	-7.958597	97.407709	98.467612
0.125000	-8.262289	5.146936	-3.977583	-0.118416	0.832920	0.074859	10.245179	-8.168971	-0.713957	83.990961	-19.861735	-22.417855	0.000000	20.904436	8.967255	5.018250	19.467176	4.667601	-3.436797	0.000000	-1.285787	-9.334979	4.968715	-2.604879	-8.500416	11.939211	74.718922	98.171404	-20.383279	-19.242978	-7.471051	98.714219	99.505884
0.133333	-8.124863	5.155793	-3.665882	-0.119308	0.830106	0.074290	11.844689	-8.466411	-0.548879	86.970780	-20.397805	-23.493624	0.000000	19.519246	9.504363	5.489450	20.349684	6.448776	-4.325399	0.000000	-1.366999	-9.371095	3.944915	-4.288003	-8.109224	10.597488	73.071658	97.973014	-18.414647	-19.874798	-7.019969	99.738569	100.510244
0.141667	-8.080845	5.093527	-3.334715	-0.120323	0.827378	0.073727	13.660696	-8.576458	-0.287314	89.507271	-20.010869	-24.695995	0.000000	18.258375	9.924602	5.913872	21.258976	8.237471	-5.029929	0.000000	-1.397949	-9.323567	2.807837	-5.907102	-7.744534	9.141753	71.581956	97.764042	-16.343047	-20.431329	-6.555627	100.715009	101.450128
0.150000	-8.080531	4.925074	-2.957322	-0.121440	0.824667	0.073153	15.563060	-8.447802	0.017807	91.530856	-19.248372	-25.870227	0.000000	17.068043	10.148528	6.241706	22.163780	10.157761	-5.247399	0.000000	-1.422519	-9.162396	1.708774	-7.685540	-7.475953	7.477871	70.626043	97.509249	-13.991244	-20.897751	-5.928074	101.576040	102.283771
0.158333	-8.173077	4.642419	-2.581894	-0.122639	0.822030	0.072412	17.593318	-8.079487	0.357936	93.079111	-17.841884	-26.818579	0.000000	15.981517	10.170791	6.498668	23.006607	12.068760	-5.085322	0.000000	-1.367101	-8.851764	0.682190	-9.553661	-7.292838	5.668786	70.113824	97.218065	-11.438295	-21.243883	-5.153830	102.358908	102.947191
0.166667	-8.294578	4.237144	-2.235091	-0.123918	0.820130	0.071627	19.677702	-7.462908	0.708415	94.221798	-15.693684	-27.302578	0.000000	14.868261	9.964806	6.623707	23.682517	13.836543	-4.516202	0.000000	-1.279778	-8.378340	-0.309303	-11.418555	-7.214877	3.839509	70.012109	96.909988	-8.755586	-21.450869	-4.345378	103.103196	103.391266
0.175000	-8.402529	3.677830	-1.909282	-0.125503	0.819181	0.070761	21.738049	-6.589368	1.015109	95.010361	-13.185882	-27.046627	0.000000	13.676211	9.489650	6.610420	24.194206	15.437442	-3.514385	0.000000	-1.231214	-7.719001	-1.192718	-13.360207	-7.206749	1.911752	70.462254	96.561034	-5.873310	-21.442059	-3.462226	103.796249	103.573621
0.183333	-8.535519	3.004908	-1.609807	-0.127505	0.819292	0.069897	23.833261	-5.530135	1.258439	95.473813	-11.082495	-26.302241	0.000000	12.422905	8.812312	6.552868	24.458148	16.637261	-2.379194	0.000000	-1.125259	-6.915420	-1.948697	-15.285350	-7.256948	-0.134882	71.163605	96.183778	-2.768160	-21.371946	-2.486094	104.316210	103.897568
0.191667	-8.609560	2.218417	-1.319398	-0.129833	0.820419	0.069053	25.880321	-4.357413	1.383990	95.581366	-9.479224	-24.669411	0.000000	11.026827	7.949594	6.458502	24.468783	17.450995	-1.137489	0.000000	-1.155344	-5.963605	-2.625665	-17.181755	-7.436403	-2.056154	72.322421	95.817324	0.449999	-21.036515	-1.614967	104.755342	104.119473
0.200000	-8.633649	1.376195	-1.100324	-0.132504	0.822522	0.068592	27.990005	-3.160278	1.433630	95.297691	-8.271501	-22.881811	0.000000	9.456657	6.977974	6.419724	24.089617	17.652005	-0.076079	0.000000	-1.288282	-4.912871	-3.411856	-18.713825	-7.803548	-3.396195	73.598572	95.549727	3.478093	-20.541038	-1.153279	105.110739	104.167575
0.208333	-8.824683	0.509695	-0.889452	-0.135272	0.825139	0.068674	30.390595	-1.991258	1.343443	94.568058	-7.378171	-21.201992	0.000000	7.954745	5.920898	6.407046	23.349390	17.237966	0.925119	0.000000	-1.247292	-3.878202	-4.370125	-19.854637	-8.219623	-4.318994	74.448605	95.359373	6.079811	-20.065443	-1.068318	105.675373	104.139585
0.216667	-9.001980	-0.344789	-0.666867	-0.138090	0.828297	0.069324	32.700531	-0.891402	1.080086	93.192834	-7.110310	-19.573575	0.000000	6.279990	4.807699	6.375574	22.189633	16.364745	2.063897	0.000000	-1.299356	-2.837582	-5.176482	-20.967236	-8.521594	-5.312306	75.582694	95.175398	8.628225	-19.541331	-1.017161	106.218544	104.094521
0.225000	-9.191795	-1.178067	-0.481681	-0.140659	0.831918	0.070383	34.789875	0.174058	0.665576	91.047894	-6.767920	-18.256242	0.000000	4.424810	3.673709	6.298610	20.575066	14.964661	3.131045	0.000000	-1.386816	-1.797811	-5.718937	-22.077620	-8.660185	-6.387953	76.787045	95.031941	11.094615	-18.987928	-0.868666	106.744135	104.010523
0.233333	-9.512034	-1.987324	-0.278532	-0.142738	0.835784	0.071819	36.649313	1.185819	0.042749	88.188451	-5.994918	-17.292857	0.000000	2.445370	2.533081	6.182447	18.535652	13.176161	4.233120	0.000000	-1.297241	-0.809194	-6.147147	-23.143923	-8.670731	-7.368836	77.853037	94.926145	13.344504	-18.445399	-0.667885	107.265325	103.915767
